<svg width="503" height="132" viewBox="0 0 503 132" fill="none" xmlns="http://www.w3.org/2000/svg">
<path d="M0.340244 43V0.311996H31.6362V9.592H11.3482V16.696H31.1882V26.04H11.3482V33.72H31.6362V43H0.340244ZM37.7717 43V0.311996H47.6277V43H37.7717ZM52.7237 27.512C52.7237 18.552 59.5077 11.32 69.1717 11.32C78.3237 11.32 84.9797 18.04 84.9797 28.536V30.648H62.9637C63.5397 33.528 66.2277 36.152 70.8357 36.152C73.5877 36.152 76.6597 35.064 78.3877 33.528L82.5477 39.672C79.4757 42.424 74.3557 43.768 69.6197 43.768C60.0837 43.768 52.7237 37.56 52.7237 27.512ZM69.1717 18.936C64.8837 18.936 63.2197 22.008 62.8357 24.248H75.5717C75.3157 22.072 73.7157 18.936 69.1717 18.936ZM97.7702 43L85.6102 12.088H95.9782L102.954 31.672L109.994 12.088H120.426L108.266 43H97.7702ZM141.637 43V39.928C139.717 42.232 136.005 43.768 132.037 43.768C127.301 43.768 121.413 40.568 121.413 33.592C121.413 26.104 127.301 23.864 132.037 23.864C136.133 23.864 139.781 25.144 141.637 27.448V23.544C141.637 20.856 139.333 19.064 135.365 19.064C132.293 19.064 129.093 20.216 126.597 22.328L123.077 16.12C127.045 12.728 132.357 11.32 137.093 11.32C144.517 11.32 151.493 14.072 151.493 23.672V43H141.637ZM141.637 35.064V32.312C140.613 30.904 138.309 30.136 136.133 30.136C133.509 30.136 131.205 31.288 131.205 33.72C131.205 36.152 133.509 37.304 136.133 37.304C138.309 37.304 140.613 36.536 141.637 35.064ZM170.359 43.768C164.087 43.768 160.695 40.632 160.695 34.68V20.664H155.575V12.088H160.695V3.64H170.487V12.088H176.759V20.664H170.487V31.928C170.487 33.72 171.511 35.064 173.239 35.064C174.327 35.064 175.415 34.68 175.735 34.296L177.655 41.72C176.439 42.872 174.007 43.768 170.359 43.768ZM179.661 27.512C179.661 18.552 186.445 11.32 196.109 11.32C205.261 11.32 211.917 18.04 211.917 28.536V30.648H189.901C190.477 33.528 193.165 36.152 197.773 36.152C200.525 36.152 203.597 35.064 205.325 33.528L209.485 39.672C206.413 42.424 201.293 43.768 196.557 43.768C187.021 43.768 179.661 37.56 179.661 27.512ZM196.109 18.936C191.821 18.936 190.157 22.008 189.773 24.248H202.509C202.253 22.072 200.653 18.936 196.109 18.936ZM245.051 43V25.784L228.859 0.311996H241.275L250.555 16.056L259.707 0.311996H272.187L256.059 25.784V43H245.051ZM282.056 43.768C271.56 43.768 265.224 36.216 265.224 27.512C265.224 18.808 271.56 11.32 282.056 11.32C292.68 11.32 298.952 18.808 298.952 27.512C298.952 36.216 292.68 43.768 282.056 43.768ZM282.056 35.064C286.408 35.064 288.84 31.672 288.84 27.512C288.84 23.416 286.408 20.024 282.056 20.024C277.768 20.024 275.4 23.416 275.4 27.512C275.4 31.672 277.768 35.064 282.056 35.064ZM325.011 43V39.288C323.091 41.464 319.507 43.768 314.323 43.768C307.283 43.768 304.147 39.8 304.147 34.104V12.088H314.003V30.072C314.003 33.784 315.923 35.064 319.123 35.064C321.939 35.064 323.859 33.528 325.011 32.056V12.088H334.867V43H325.011ZM342.022 43V12.088H351.878V15.992C353.926 13.496 357.83 11.32 361.542 11.32V20.856C360.966 20.664 360.134 20.536 359.11 20.536C356.55 20.536 353.158 21.624 351.878 23.416V43H342.022Z" fill="white"/>
<path d="M24.1482 119L16.9802 104.536H11.3482V119H0.340244V76.312H21.7162C31.1882 76.312 36.5642 82.584 36.5642 90.52C36.5642 97.944 32.0202 101.912 28.0522 103.32L36.7562 119H24.1482ZM25.3642 90.392C25.3642 87.448 22.9322 85.592 20.0522 85.592H11.3482V95.192H20.0522C22.9322 95.192 25.3642 93.336 25.3642 90.392ZM38.4112 103.512C38.4112 94.552 45.1952 87.32 54.8592 87.32C64.0112 87.32 70.6672 94.04 70.6672 104.536V106.648H48.6512C49.2272 109.528 51.9152 112.152 56.5232 112.152C59.2752 112.152 62.3472 111.064 64.0752 109.528L68.2352 115.672C65.1632 118.424 60.0432 119.768 55.3072 119.768C45.7712 119.768 38.4112 113.56 38.4112 103.512ZM54.8592 94.936C50.5712 94.936 48.9072 98.008 48.5232 100.248H61.2592C61.0032 98.072 59.4032 94.936 54.8592 94.936ZM73.4737 103.512C73.4737 93.848 80.7057 87.32 90.3697 87.32C97.0257 87.32 101.186 90.264 103.042 93.016L96.6417 98.968C95.4257 97.176 93.4417 96.024 90.8177 96.024C86.7217 96.024 83.5857 98.84 83.5857 103.512C83.5857 108.184 86.7217 111.064 90.8177 111.064C93.4417 111.064 95.4257 109.784 96.6417 108.056L103.042 114.072C101.186 116.76 97.0257 119.768 90.3697 119.768C80.7057 119.768 73.4737 113.24 73.4737 103.512ZM107.522 119V88.088H117.378V91.992C119.426 89.496 123.33 87.32 127.042 87.32V96.856C126.466 96.664 125.634 96.536 124.61 96.536C122.05 96.536 118.658 97.624 117.378 99.416V119H107.522ZM152.386 119V115.288C150.466 117.464 146.882 119.768 141.698 119.768C134.658 119.768 131.522 115.8 131.522 110.104V88.088H141.378V106.072C141.378 109.784 143.298 111.064 146.498 111.064C149.314 111.064 151.234 109.528 152.386 108.056V88.088H162.242V119H152.386ZM174.325 84.184C171.189 84.184 168.693 81.688 168.693 78.552C168.693 75.416 171.189 72.92 174.325 72.92C177.461 72.92 179.957 75.416 179.957 78.552C179.957 81.688 177.461 84.184 174.325 84.184ZM169.397 119V88.088H179.253V119H169.397ZM198.109 119.768C191.837 119.768 188.445 116.632 188.445 110.68V96.664H183.325V88.088H188.445V79.64H198.237V88.088H204.509V96.664H198.237V107.928C198.237 109.72 199.261 111.064 200.989 111.064C202.077 111.064 203.165 110.68 203.485 110.296L205.405 117.72C204.189 118.872 201.757 119.768 198.109 119.768ZM214.387 84.184C211.251 84.184 208.755 81.688 208.755 78.552C208.755 75.416 211.251 72.92 214.387 72.92C217.523 72.92 220.019 75.416 220.019 78.552C220.019 81.688 217.523 84.184 214.387 84.184ZM209.459 119V88.088H219.315V119H209.459ZM247.387 119V101.144C247.387 97.368 245.403 96.024 242.331 96.024C239.387 96.024 237.467 97.624 236.315 99.032V119H226.459V88.088H236.315V91.864C238.171 89.688 241.819 87.32 247.003 87.32C254.043 87.32 257.243 91.416 257.243 97.112V119H247.387ZM263.565 126.936L267.853 119.896C270.221 122.456 273.677 123.48 277.261 123.48C280.525 123.48 285.133 122.136 285.133 116.376V114.008C282.573 117.016 279.501 118.488 275.981 118.488C268.429 118.488 262.349 113.304 262.349 102.872C262.349 92.696 268.237 87.32 275.981 87.32C279.437 87.32 282.637 88.664 285.133 91.736V88.088H294.925V116.248C294.925 128.856 284.941 131.544 277.261 131.544C271.949 131.544 267.533 130.2 263.565 126.936ZM285.133 107.032V98.776C283.917 97.112 281.293 96.024 279.245 96.024C275.341 96.024 272.461 98.392 272.461 102.872C272.461 107.416 275.341 109.784 279.245 109.784C281.293 109.784 283.917 108.696 285.133 107.032ZM316.602 97.688C316.602 84.12 326.97 75.608 339.706 75.608C349.05 75.608 354.81 80.216 357.946 85.528L348.73 90.392C347.002 87.576 343.738 85.336 339.706 85.336C332.73 85.336 327.802 90.712 327.802 97.688C327.802 104.664 332.73 110.04 339.706 110.04C343.034 110.04 346.042 108.888 347.77 107.48V103.896H337.978V94.744H358.586V111.448C353.978 116.504 347.77 119.768 339.706 119.768C326.97 119.768 316.602 111.256 316.602 97.688ZM383.012 119V115.928C381.092 118.232 377.38 119.768 373.412 119.768C368.676 119.768 362.788 116.568 362.788 109.592C362.788 102.104 368.676 99.864 373.412 99.864C377.508 99.864 381.156 101.144 383.012 103.448V99.544C383.012 96.856 380.708 95.064 376.74 95.064C373.668 95.064 370.468 96.216 367.972 98.328L364.452 92.12C368.42 88.728 373.732 87.32 378.468 87.32C385.892 87.32 392.868 90.072 392.868 99.672V119H383.012ZM383.012 111.064V108.312C381.988 106.904 379.684 106.136 377.508 106.136C374.884 106.136 372.58 107.288 372.58 109.72C372.58 112.152 374.884 113.304 377.508 113.304C379.684 113.304 381.988 112.536 383.012 111.064ZM438.998 119V100.184C438.998 97.816 437.846 96.024 434.902 96.024C432.214 96.024 430.294 97.752 429.334 99.032V119H419.478V100.184C419.478 97.816 418.39 96.024 415.382 96.024C412.758 96.024 410.902 97.752 409.878 99.032V119H400.022V88.088H409.878V91.864C411.222 90.072 415.19 87.32 420.054 87.32C424.47 87.32 427.542 89.176 428.822 92.824C430.614 90.136 434.646 87.32 439.51 87.32C445.206 87.32 448.79 90.264 448.79 96.6V119H438.998ZM453.974 103.512C453.974 94.552 460.758 87.32 470.422 87.32C479.574 87.32 486.23 94.04 486.23 104.536V106.648H464.214C464.79 109.528 467.478 112.152 472.086 112.152C474.838 112.152 477.91 111.064 479.638 109.528L483.798 115.672C480.726 118.424 475.606 119.768 470.87 119.768C461.334 119.768 453.974 113.56 453.974 103.512ZM470.422 94.936C466.134 94.936 464.47 98.008 464.086 100.248H476.822C476.566 98.072 474.966 94.936 470.422 94.936ZM491.724 104.088L490.188 76.312H501.964L500.492 104.088H491.724ZM490.124 113.752C490.124 110.488 492.812 107.736 496.076 107.736C499.34 107.736 502.092 110.488 502.092 113.752C502.092 116.952 499.34 119.704 496.076 119.704C492.812 119.704 490.124 116.952 490.124 113.752Z" fill="url(#paint0_linear_66_9008)"/>
<defs>
<linearGradient id="paint0_linear_66_9008" x1="251" y1="0" x2="251" y2="195" gradientUnits="userSpaceOnUse">
<stop stop-color="#ED6D31"/>
<stop offset="1" stop-color="#EB4432"/>
</linearGradient>
</defs>
</svg>
