<svg width="918" height="88" viewBox="0 0 918 88" fill="none" xmlns="http://www.w3.org/2000/svg">
<path d="M54.455 88H0.0550003V2.62399H18.359V72H54.455V88ZM118.943 88H102.559V81.472C98.335 86.592 91.039 89.536 82.975 89.536C73.119 89.536 61.599 82.88 61.599 69.056C61.599 54.464 73.119 49.088 82.975 49.088C91.295 49.088 98.463 51.776 102.559 56.64V48.832C102.559 42.56 97.183 38.464 88.991 38.464C82.463 38.464 76.319 41.024 71.199 45.76L64.799 34.368C72.351 27.584 82.079 24.64 91.807 24.64C106.015 24.64 118.943 30.272 118.943 48.064V88ZM89.503 78.528C94.751 78.528 99.871 76.736 102.559 73.152V65.472C99.871 61.888 94.751 59.968 89.503 59.968C83.103 59.968 77.855 63.424 77.855 69.312C77.855 75.2 83.103 78.528 89.503 78.528ZM192.923 88H176.667V80.192C172.443 84.8 165.019 89.536 154.907 89.536C141.339 89.536 134.939 82.112 134.939 70.08V26.176H151.195V63.68C151.195 72.256 155.675 75.072 162.587 75.072C168.859 75.072 173.851 71.616 176.667 68.032V26.176H192.923V88ZM267.176 88H250.792V50.624C250.792 42.048 246.312 39.104 239.4 39.104C233 39.104 228.136 42.688 225.32 46.272V88H209.064V26.176H225.32V34.112C229.288 29.504 236.968 24.64 246.952 24.64C260.648 24.64 267.176 32.32 267.176 44.352V88ZM311.989 89.536C293.045 89.536 279.221 76.096 279.221 57.024C279.221 38.08 293.045 24.64 311.989 24.64C324.661 24.64 332.341 30.144 336.437 35.776L325.813 45.76C322.869 41.408 318.389 39.104 312.757 39.104C302.901 39.104 295.989 46.272 295.989 57.024C295.989 67.776 302.901 75.072 312.757 75.072C318.389 75.072 322.869 72.512 325.813 68.288L336.437 78.272C332.341 83.904 324.661 89.536 311.989 89.536ZM405.176 88H388.92V50.368C388.92 41.792 384.44 39.104 377.528 39.104C371.128 39.104 366.136 42.688 363.448 46.272V88H347.064V2.62399H363.448V34.112C367.416 29.504 374.968 24.64 385.08 24.64C398.648 24.64 405.176 32.064 405.176 44.096V88ZM429.378 19.52C424.13 19.52 419.778 15.168 419.778 9.792C419.778 4.41599 424.13 0.191994 429.378 0.191994C434.754 0.191994 439.106 4.41599 439.106 9.792C439.106 15.168 434.754 19.52 429.378 19.52ZM437.57 88H421.314V26.176H437.57V88ZM511.801 88H495.417V50.624C495.417 42.048 490.937 39.104 484.025 39.104C477.625 39.104 472.761 42.688 469.945 46.272V88H453.689V26.176H469.945V34.112C473.913 29.504 481.593 24.64 491.577 24.64C505.273 24.64 511.801 32.32 511.801 44.352V88ZM553.158 113.088C542.662 113.088 534.342 110.656 526.534 103.872L533.83 92.224C538.822 97.6 545.478 99.776 553.158 99.776C560.966 99.776 570.31 96.448 570.31 83.904V77.888C565.446 84.032 558.79 87.488 551.11 87.488C535.75 87.488 523.846 76.736 523.846 56.128C523.846 35.904 535.494 24.64 551.11 24.64C558.534 24.64 565.318 27.712 570.31 34.112V26.176H586.566V83.904C586.566 107.328 568.39 113.088 553.158 113.088ZM556.358 73.152C561.606 73.152 567.494 70.08 570.31 66.112V46.016C567.494 42.048 561.606 39.104 556.358 39.104C547.014 39.104 540.614 45.504 540.614 56.128C540.614 66.752 547.014 73.152 556.358 73.152ZM666.412 89.536C649.9 89.536 638.124 84.032 630.06 75.968L640.044 61.76C646.06 68.032 655.404 73.408 667.18 73.408C677.292 73.408 682.028 68.928 682.028 63.936C682.028 49.088 632.876 59.456 632.876 27.328C632.876 13.12 645.164 1.34399 665.26 1.34399C678.828 1.34399 690.092 5.43999 698.54 13.248L688.428 26.816C681.516 20.416 672.3 17.472 663.596 17.472C655.916 17.472 651.564 20.8 651.564 25.92C651.564 39.36 700.588 30.272 700.588 62.144C700.588 77.76 689.324 89.536 666.412 89.536ZM740.986 89.536C720.634 89.536 708.346 74.56 708.346 57.024C708.346 39.488 720.634 24.64 740.986 24.64C761.466 24.64 773.754 39.488 773.754 57.024C773.754 74.56 761.466 89.536 740.986 89.536ZM740.986 75.072C751.226 75.072 756.858 66.752 756.858 57.024C756.858 47.424 751.226 39.104 740.986 39.104C730.874 39.104 725.242 47.424 725.242 57.024C725.242 66.752 730.874 75.072 740.986 75.072ZM814.611 89.536C794.259 89.536 781.971 74.56 781.971 57.024C781.971 39.488 794.259 24.64 814.611 24.64C835.091 24.64 847.379 39.488 847.379 57.024C847.379 74.56 835.091 89.536 814.611 89.536ZM814.611 75.072C824.851 75.072 830.483 66.752 830.483 57.024C830.483 47.424 824.851 39.104 814.611 39.104C804.499 39.104 798.867 47.424 798.867 57.024C798.867 66.752 804.499 75.072 814.611 75.072ZM917.676 88H901.292V50.624C901.292 42.048 896.812 39.104 889.9 39.104C883.5 39.104 878.636 42.688 875.82 46.272V88H859.564V26.176H875.82V34.112C879.788 29.504 887.468 24.64 897.452 24.64C911.148 24.64 917.676 32.32 917.676 44.352V88Z" fill="#222222" fill-opacity="0.12"/>
<path d="M54.455 88V89H55.455V88H54.455ZM0.0550003 88H-0.945V89H0.0550003V88ZM0.0550003 2.62399V1.62399H-0.945V2.62399H0.0550003ZM18.359 2.62399H19.359V1.62399H18.359V2.62399ZM18.359 72H17.359V73H18.359V72ZM54.455 72H55.455V71H54.455V72ZM54.455 87H0.0550003V89H54.455V87ZM1.055 88V2.62399H-0.945V88H1.055ZM0.0550003 3.62399H18.359V1.62399H0.0550003V3.62399ZM17.359 2.62399V72H19.359V2.62399H17.359ZM18.359 73H54.455V71H18.359V73ZM53.455 72V88H55.455V72H53.455ZM118.943 88V89H119.943V88H118.943ZM102.559 88H101.559V89H102.559V88ZM102.559 81.472H103.559V78.6885L101.788 80.8356L102.559 81.472ZM102.559 56.64L101.794 57.2841L103.559 59.38V56.64H102.559ZM71.199 45.76L70.3272 46.2498L70.9478 47.3546L71.878 46.4941L71.199 45.76ZM64.799 34.368L64.1307 33.6241L63.5348 34.1594L63.9272 34.8578L64.799 34.368ZM102.559 73.152L103.359 73.752L103.559 73.4853V73.152H102.559ZM102.559 65.472H103.559V65.1387L103.359 64.872L102.559 65.472ZM118.943 87H102.559V89H118.943V87ZM103.559 88V81.472H101.559V88H103.559ZM101.788 80.8356C97.7995 85.6697 90.821 88.536 82.975 88.536V90.536C91.257 90.536 98.8705 87.5143 103.33 82.1084L101.788 80.8356ZM82.975 88.536C78.2552 88.536 73.1425 86.9382 69.2273 83.7086C65.3371 80.4995 62.599 75.6586 62.599 69.056H60.599C60.599 76.2774 63.6209 81.6765 67.9547 85.2514C72.2635 88.8058 77.8388 90.536 82.975 90.536V88.536ZM62.599 69.056C62.599 62.0591 65.3437 57.3642 69.2013 54.3922C73.0967 51.391 78.2087 50.088 82.975 50.088V48.088C77.8853 48.088 72.3093 49.473 67.9807 52.8078C63.6143 56.1718 60.599 61.4609 60.599 69.056H62.599ZM82.975 50.088C91.1104 50.088 97.9493 52.7184 101.794 57.2841L103.324 55.9959C98.9767 50.8336 91.4796 48.088 82.975 48.088V50.088ZM103.559 56.64V48.832H101.559V56.64H103.559ZM103.559 48.832C103.559 45.3788 102.065 42.495 99.4539 40.5012C96.8667 38.5259 93.2423 37.464 88.991 37.464V39.464C92.9317 39.464 96.0913 40.4501 98.2402 42.0908C100.365 43.713 101.559 46.0132 101.559 48.832H103.559ZM88.991 37.464C82.1869 37.464 75.8061 40.1362 70.52 45.0259L71.878 46.4941C76.8319 41.9118 82.7391 39.464 88.991 39.464V37.464ZM72.0708 45.2702L65.6708 33.8782L63.9272 34.8578L70.3272 46.2498L72.0708 45.2702ZM65.4673 35.1119C72.8014 28.5236 82.2754 25.64 91.807 25.64V23.64C81.8826 23.64 71.9006 26.6444 64.1307 33.6241L65.4673 35.1119ZM91.807 25.64C98.8049 25.64 105.347 27.0312 110.116 30.4895C114.83 33.9081 117.943 39.4428 117.943 48.064H119.943C119.943 38.8932 116.592 32.7159 111.29 28.8705C106.043 25.0648 99.0171 23.64 91.807 23.64V25.64ZM117.943 48.064V88H119.943V48.064H117.943ZM89.503 79.528C94.9232 79.528 100.41 77.6834 103.359 73.752L101.759 72.552C99.3316 75.7886 94.5788 77.528 89.503 77.528V79.528ZM103.559 73.152V65.472H101.559V73.152H103.559ZM103.359 64.872C100.419 60.9527 94.9442 58.968 89.503 58.968V60.968C94.5578 60.968 99.3225 62.8233 101.759 66.072L103.359 64.872ZM89.503 58.968C86.1348 58.968 82.9969 59.876 80.6751 61.6349C78.3298 63.4117 76.855 66.0352 76.855 69.312H78.855C78.855 66.7008 80.0042 64.6523 81.8829 63.2291C83.7851 61.788 86.4712 60.968 89.503 60.968V58.968ZM76.855 69.312C76.855 72.5915 78.3324 75.1859 80.6829 76.9309C83.0065 78.656 86.1429 79.528 89.503 79.528V77.528C86.4631 77.528 83.7755 76.736 81.8751 75.3251C80.0016 73.9341 78.855 71.9205 78.855 69.312H76.855ZM192.923 88V89H193.923V88H192.923ZM176.667 88H175.667V89H176.667V88ZM176.667 80.192H177.667V77.6212L175.93 79.5163L176.667 80.192ZM134.939 26.176V25.176H133.939V26.176H134.939ZM151.195 26.176H152.195V25.176H151.195V26.176ZM176.667 68.032L177.453 68.6498L177.667 68.3779V68.032H176.667ZM176.667 26.176V25.176H175.667V26.176H176.667ZM192.923 26.176H193.923V25.176H192.923V26.176ZM192.923 87H176.667V89H192.923V87ZM177.667 88V80.192H175.667V88H177.667ZM175.93 79.5163C171.859 83.9568 164.69 88.536 154.907 88.536V90.536C165.348 90.536 173.027 85.6432 177.404 80.8677L175.93 79.5163ZM154.907 88.536C148.301 88.536 143.602 86.7318 140.549 83.6197C137.492 80.5039 135.939 75.927 135.939 70.08H133.939C133.939 76.265 135.586 81.4161 139.121 85.0203C142.66 88.6283 147.945 90.536 154.907 90.536V88.536ZM135.939 70.08V26.176H133.939V70.08H135.939ZM134.939 27.176H151.195V25.176H134.939V27.176ZM150.195 26.176V63.68H152.195V26.176H150.195ZM150.195 63.68C150.195 68.133 151.361 71.3041 153.632 73.3371C155.881 75.3502 159.022 76.072 162.587 76.072V74.072C159.24 74.072 156.685 73.3858 154.966 71.8469C153.269 70.3279 152.195 67.803 152.195 63.68H150.195ZM162.587 76.072C169.237 76.072 174.497 72.413 177.453 68.6498L175.881 67.4142C173.205 70.819 168.481 74.072 162.587 74.072V76.072ZM177.667 68.032V26.176H175.667V68.032H177.667ZM176.667 27.176H192.923V25.176H176.667V27.176ZM191.923 26.176V88H193.923V26.176H191.923ZM267.176 88V89H268.176V88H267.176ZM250.792 88H249.792V89H250.792V88ZM225.32 46.272L224.534 45.6542L224.32 45.9261V46.272H225.32ZM225.32 88V89H226.32V88H225.32ZM209.064 88H208.064V89H209.064V88ZM209.064 26.176V25.176H208.064V26.176H209.064ZM225.32 26.176H226.32V25.176H225.32V26.176ZM225.32 34.112H224.32V36.8058L226.078 34.7645L225.32 34.112ZM267.176 87H250.792V89H267.176V87ZM251.792 88V50.624H249.792V88H251.792ZM251.792 50.624C251.792 46.1708 250.626 42.9726 248.362 40.9089C246.115 38.8617 242.974 38.104 239.4 38.104V40.104C242.738 40.104 245.293 40.8183 247.014 42.3871C248.718 43.9394 249.792 46.5011 249.792 50.624H251.792ZM239.4 38.104C232.605 38.104 227.477 41.9081 224.534 45.6542L226.106 46.8898C228.795 43.4679 233.395 40.104 239.4 40.104V38.104ZM224.32 46.272V88H226.32V46.272H224.32ZM225.32 87H209.064V89H225.32V87ZM210.064 88V26.176H208.064V88H210.064ZM209.064 27.176H225.32V25.176H209.064V27.176ZM224.32 26.176V34.112H226.32V26.176H224.32ZM226.078 34.7645C229.88 30.3487 237.295 25.64 246.952 25.64V23.64C236.641 23.64 228.696 28.6593 224.562 33.4595L226.078 34.7645ZM246.952 25.64C253.615 25.64 258.381 27.5046 261.485 30.6827C264.593 33.8654 266.176 38.5096 266.176 44.352H268.176C268.176 38.1624 266.495 32.9505 262.915 29.2853C259.331 25.6154 253.985 23.64 246.952 23.64V25.64ZM266.176 44.352V88H268.176V44.352H266.176ZM336.437 35.776L337.122 36.5047L337.764 35.9009L337.246 35.1878L336.437 35.776ZM325.813 45.76L324.985 46.3203L325.642 47.2926L326.498 46.4887L325.813 45.76ZM325.813 68.288L326.498 67.5593L325.654 66.7667L324.993 67.7162L325.813 68.288ZM336.437 78.272L337.246 78.8602L337.764 78.1471L337.122 77.5433L336.437 78.272ZM311.989 88.536C293.584 88.536 280.221 75.5307 280.221 57.024H278.221C278.221 76.6613 292.506 90.536 311.989 90.536V88.536ZM280.221 57.024C280.221 38.6479 293.582 25.64 311.989 25.64V23.64C292.508 23.64 278.221 37.5121 278.221 57.024H280.221ZM311.989 25.64C324.331 25.64 331.714 30.9825 335.628 36.3642L337.246 35.1878C332.968 29.3055 324.991 23.64 311.989 23.64V25.64ZM335.752 35.0473L325.128 45.0313L326.498 46.4887L337.122 36.5047L335.752 35.0473ZM326.641 45.1997C323.498 40.5535 318.697 38.104 312.757 38.104V40.104C318.081 40.104 322.24 42.2625 324.985 46.3203L326.641 45.1997ZM312.757 38.104C307.577 38.104 303.114 39.9934 299.95 43.3456C296.79 46.6938 294.989 51.4318 294.989 57.024H296.989C296.989 51.8642 298.645 47.6422 301.404 44.7184C304.16 41.7986 308.081 40.104 312.757 40.104V38.104ZM294.989 57.024C294.989 62.6156 296.789 67.3836 299.946 70.7627C303.108 74.1467 307.571 76.072 312.757 76.072V74.072C308.087 74.072 304.166 72.3493 301.408 69.3973C298.645 66.4404 296.989 62.1844 296.989 57.024H294.989ZM312.757 76.072C318.729 76.072 323.51 73.3415 326.633 68.8598L324.993 67.7162C322.228 71.6825 318.049 74.072 312.757 74.072V76.072ZM325.128 69.0167L335.752 79.0007L337.122 77.5433L326.498 67.5593L325.128 69.0167ZM335.628 77.6838C331.709 83.0732 324.322 88.536 311.989 88.536V90.536C325 90.536 332.973 84.7348 337.246 78.8602L335.628 77.6838ZM405.176 88V89H406.176V88H405.176ZM388.92 88H387.92V89H388.92V88ZM363.448 46.272L362.648 45.672L362.448 45.9387V46.272H363.448ZM363.448 88V89H364.448V88H363.448ZM347.064 88H346.064V89H347.064V88ZM347.064 2.62399V1.62399H346.064V2.62399H347.064ZM363.448 2.62399H364.448V1.62399H363.448V2.62399ZM363.448 34.112H362.448V36.8058L364.206 34.7645L363.448 34.112ZM405.176 87H388.92V89H405.176V87ZM389.92 88V50.368H387.92V88H389.92ZM389.92 50.368C389.92 45.9153 388.754 42.7711 386.476 40.7689C384.225 38.79 381.084 38.104 377.528 38.104V40.104C380.884 40.104 383.439 40.762 385.156 42.2711C386.846 43.7569 387.92 46.2447 387.92 50.368H389.92ZM377.528 38.104C370.743 38.104 365.478 41.8984 362.648 45.672L364.248 46.872C366.794 43.4776 371.513 40.104 377.528 40.104V38.104ZM362.448 46.272V88H364.448V46.272H362.448ZM363.448 87H347.064V89H363.448V87ZM348.064 88V2.62399H346.064V88H348.064ZM347.064 3.62399H363.448V1.62399H347.064V3.62399ZM362.448 2.62399V34.112H364.448V2.62399H362.448ZM364.206 34.7645C368.01 30.3466 375.297 25.64 385.08 25.64V23.64C374.639 23.64 366.822 28.6614 362.69 33.4595L364.206 34.7645ZM385.08 25.64C391.686 25.64 396.42 27.4444 399.506 30.5597C402.593 33.6772 404.176 38.254 404.176 44.096H406.176C406.176 37.906 404.495 32.7548 400.926 29.1523C397.356 25.5476 392.042 23.64 385.08 23.64V25.64ZM404.176 44.096V88H406.176V44.096H404.176ZM437.57 88V89H438.57V88H437.57ZM421.314 88H420.314V89H421.314V88ZM421.314 26.176V25.176H420.314V26.176H421.314ZM437.57 26.176H438.57V25.176H437.57V26.176ZM429.378 18.52C424.691 18.52 420.778 14.6243 420.778 9.792H418.778C418.778 15.7117 423.569 20.52 429.378 20.52V18.52ZM420.778 9.792C420.778 4.97695 424.674 1.19199 429.378 1.19199V-0.808006C423.586 -0.808006 418.778 3.85504 418.778 9.792H420.778ZM429.378 1.19199C434.219 1.19199 438.106 4.9855 438.106 9.792H440.106C440.106 3.84649 435.289 -0.808006 429.378 -0.808006V1.19199ZM438.106 9.792C438.106 14.6157 434.202 18.52 429.378 18.52V20.52C435.306 20.52 440.106 15.7203 440.106 9.792H438.106ZM437.57 87H421.314V89H437.57V87ZM422.314 88V26.176H420.314V88H422.314ZM421.314 27.176H437.57V25.176H421.314V27.176ZM436.57 26.176V88H438.57V26.176H436.57ZM511.801 88V89H512.801V88H511.801ZM495.417 88H494.417V89H495.417V88ZM469.945 46.272L469.159 45.6542L468.945 45.9261V46.272H469.945ZM469.945 88V89H470.945V88H469.945ZM453.689 88H452.689V89H453.689V88ZM453.689 26.176V25.176H452.689V26.176H453.689ZM469.945 26.176H470.945V25.176H469.945V26.176ZM469.945 34.112H468.945V36.8058L470.703 34.7645L469.945 34.112ZM511.801 87H495.417V89H511.801V87ZM496.417 88V50.624H494.417V88H496.417ZM496.417 50.624C496.417 46.1708 495.251 42.9726 492.987 40.9089C490.74 38.8617 487.599 38.104 484.025 38.104V40.104C487.363 40.104 489.918 40.8183 491.639 42.3871C493.343 43.9394 494.417 46.5011 494.417 50.624H496.417ZM484.025 38.104C477.23 38.104 472.102 41.9081 469.159 45.6542L470.731 46.8898C473.42 43.4679 478.02 40.104 484.025 40.104V38.104ZM468.945 46.272V88H470.945V46.272H468.945ZM469.945 87H453.689V89H469.945V87ZM454.689 88V26.176H452.689V88H454.689ZM453.689 27.176H469.945V25.176H453.689V27.176ZM468.945 26.176V34.112H470.945V26.176H468.945ZM470.703 34.7645C474.505 30.3487 481.92 25.64 491.577 25.64V23.64C481.266 23.64 473.321 28.6593 469.187 33.4595L470.703 34.7645ZM491.577 25.64C498.24 25.64 503.006 27.5046 506.11 30.6827C509.218 33.8654 510.801 38.5096 510.801 44.352H512.801C512.801 38.1624 511.12 32.9505 507.54 29.2853C503.956 25.6154 498.61 23.64 491.577 23.64V25.64ZM510.801 44.352V88H512.801V44.352H510.801ZM526.534 103.872L525.687 103.341L525.233 104.066L525.878 104.627L526.534 103.872ZM533.83 92.224L534.563 91.5435L533.675 90.5875L532.983 91.6932L533.83 92.224ZM570.31 77.888H571.31V75.0138L569.526 77.2673L570.31 77.888ZM570.31 34.112L569.521 34.727L571.31 37.02V34.112H570.31ZM570.31 26.176V25.176H569.31V26.176H570.31ZM586.566 26.176H587.566V25.176H586.566V26.176ZM570.31 66.112L571.125 66.6907L571.31 66.4308V66.112H570.31ZM570.31 46.016H571.31V45.6972L571.125 45.4373L570.31 46.016ZM553.158 112.088C542.849 112.088 534.779 109.711 527.19 103.117L525.878 104.627C533.905 111.601 542.475 114.088 553.158 114.088V112.088ZM527.381 104.403L534.677 92.7548L532.983 91.6932L525.687 103.341L527.381 104.403ZM533.097 92.9044C538.328 98.5372 545.282 100.776 553.158 100.776V98.776C545.674 98.776 539.316 96.6628 534.563 91.5435L533.097 92.9044ZM553.158 100.776C557.178 100.776 561.703 99.9233 565.249 97.3538C568.848 94.7453 571.31 90.4602 571.31 83.904H569.31C569.31 89.8918 567.1 93.5427 564.075 95.7343C560.997 97.9647 556.946 98.776 553.158 98.776V100.776ZM571.31 83.904V77.888H569.31V83.904H571.31ZM569.526 77.2673C564.836 83.1918 558.46 86.488 551.11 86.488V88.488C559.12 88.488 566.056 84.8722 571.094 78.5087L569.526 77.2673ZM551.11 86.488C543.67 86.488 537.133 83.8895 532.45 78.8549C527.764 73.8162 524.846 66.2402 524.846 56.128H522.846C522.846 66.6238 525.88 74.7278 530.986 80.217C536.095 85.7105 543.19 88.488 551.11 88.488V86.488ZM524.846 56.128C524.846 46.2062 527.701 38.5937 532.362 33.4731C537.016 28.3593 543.552 25.64 551.11 25.64V23.64C543.052 23.64 535.956 26.5527 530.882 32.1269C525.815 37.6943 522.846 45.8258 522.846 56.128H524.846ZM551.11 25.64C558.232 25.64 564.723 28.5751 569.521 34.727L571.099 33.497C565.913 26.8489 558.836 23.64 551.11 23.64V25.64ZM571.31 34.112V26.176H569.31V34.112H571.31ZM570.31 27.176H586.566V25.176H570.31V27.176ZM585.566 26.176V83.904H587.566V26.176H585.566ZM585.566 83.904C585.566 95.3132 581.163 102.286 575.013 106.452C568.799 110.662 560.677 112.088 553.158 112.088V114.088C560.871 114.088 569.453 112.634 576.135 108.108C582.881 103.538 587.566 95.9188 587.566 83.904H585.566ZM556.358 74.152C561.922 74.152 568.117 70.9296 571.125 66.6907L569.495 65.5333C566.871 69.2304 561.29 72.152 556.358 72.152V74.152ZM571.31 66.112V46.016H569.31V66.112H571.31ZM571.125 45.4373C568.109 41.186 561.906 38.104 556.358 38.104V40.104C561.306 40.104 566.88 42.91 569.495 46.5947L571.125 45.4373ZM556.358 38.104C551.45 38.104 547.237 39.7906 544.255 42.945C541.278 46.0949 539.614 50.6151 539.614 56.128H541.614C541.614 51.0169 543.15 47.0251 545.709 44.319C548.263 41.6174 551.922 40.104 556.358 40.104V38.104ZM539.614 56.128C539.614 61.6409 541.278 66.1611 544.255 69.311C547.237 72.4654 551.45 74.152 556.358 74.152V72.152C551.922 72.152 548.263 70.6386 545.709 67.937C543.15 65.2309 541.614 61.2391 541.614 56.128H539.614ZM630.06 75.968L629.242 75.3931L628.759 76.0808L629.353 76.6751L630.06 75.968ZM640.044 61.76L640.766 61.0678L639.924 60.1908L639.226 61.1851L640.044 61.76ZM698.54 13.248L699.342 13.8456L699.879 13.1242L699.219 12.5136L698.54 13.248ZM688.428 26.816L687.749 27.5498L688.565 28.3057L689.23 27.4136L688.428 26.816ZM666.412 88.536C650.143 88.536 638.628 83.1219 630.767 75.2609L629.353 76.6751C637.62 84.9421 649.657 90.536 666.412 90.536V88.536ZM630.878 76.5429L640.862 62.3349L639.226 61.1851L629.242 75.3931L630.878 76.5429ZM639.322 62.4522C645.492 68.8844 655.085 74.408 667.18 74.408V72.408C655.723 72.408 646.628 67.1796 640.766 61.0678L639.322 62.4522ZM667.18 74.408C672.371 74.408 676.308 73.2597 678.976 71.3585C681.667 69.4415 683.028 66.7798 683.028 63.936H681.028C681.028 66.0842 680.021 68.1585 677.816 69.7295C675.588 71.3163 672.101 72.408 667.18 72.408V74.408ZM683.028 63.936C683.028 61.7557 682.107 60.0339 680.582 58.6719C679.093 57.3419 677.027 56.3509 674.679 55.5265C672.321 54.6983 669.587 54.0085 666.707 53.3262C663.81 52.6399 660.764 51.961 657.71 51.1458C651.592 49.5128 645.624 47.3762 641.19 43.7407C636.811 40.1501 633.876 35.0565 633.876 27.328H631.876C631.876 35.6635 635.085 41.3219 639.922 45.2873C644.704 49.2078 651.024 51.4311 657.194 53.0782C660.284 53.903 663.382 54.5941 666.245 55.2723C669.125 55.9545 671.767 56.6237 674.017 57.4135C676.277 58.2071 678.051 59.0931 679.25 60.1636C680.413 61.2021 681.028 62.4043 681.028 63.936H683.028ZM633.876 27.328C633.876 13.8232 645.552 2.34399 665.26 2.34399V0.343994C644.776 0.343994 631.876 12.4167 631.876 27.328H633.876ZM665.26 2.34399C678.618 2.34399 689.627 6.37155 697.861 13.9824L699.219 12.5136C690.557 4.50844 679.038 0.343994 665.26 0.343994V2.34399ZM697.738 12.6504L687.626 26.2184L689.23 27.4136L699.342 13.8456L697.738 12.6504ZM689.107 26.0822C681.983 19.4856 672.512 16.472 663.596 16.472V18.472C672.088 18.472 681.049 21.3464 687.749 27.5498L689.107 26.0822ZM663.596 16.472C659.629 16.472 656.391 17.3293 654.116 18.964C651.806 20.6246 650.564 23.0394 650.564 25.92H652.564C652.564 23.6806 653.498 21.8714 655.284 20.588C657.105 19.2787 659.883 18.472 663.596 18.472V16.472ZM650.564 25.92C650.564 27.9617 651.517 29.5545 653.036 30.801C654.519 32.0182 656.574 32.9366 658.907 33.7164C661.253 34.5004 663.975 35.1736 666.844 35.8568C669.727 36.5434 672.768 37.2419 675.809 38.0838C681.906 39.7711 687.861 41.9979 692.287 45.6954C696.661 49.3504 699.588 54.48 699.588 62.144H701.588C701.588 53.872 698.387 48.1856 693.569 44.1606C688.803 40.1781 682.502 37.8609 676.343 36.1562C673.256 35.3021 670.169 34.5926 667.307 33.9112C664.431 33.2264 661.791 32.5716 659.541 31.8196C657.278 31.0634 655.503 30.2378 654.305 29.255C653.143 28.3015 652.564 27.2383 652.564 25.92H650.564ZM699.588 62.144C699.588 69.6985 696.872 76.2557 691.439 80.9386C685.991 85.6344 677.705 88.536 666.412 88.536V90.536C678.031 90.536 686.833 87.5496 692.745 82.4534C698.672 77.3443 701.588 70.2055 701.588 62.144H699.588ZM740.986 88.536C721.238 88.536 709.346 74.0607 709.346 57.024H707.346C707.346 75.0593 720.03 90.536 740.986 90.536V88.536ZM709.346 57.024C709.346 39.9926 721.233 25.64 740.986 25.64V23.64C720.035 23.64 707.346 38.9834 707.346 57.024H709.346ZM740.986 25.64C750.971 25.64 758.896 29.2531 764.326 34.9462C769.765 40.6475 772.754 48.489 772.754 57.024H774.754C774.754 48.023 771.599 39.6725 765.774 33.5658C759.94 27.4508 751.481 23.64 740.986 23.64V25.64ZM772.754 57.024C772.754 74.0579 760.865 88.536 740.986 88.536V90.536C762.067 90.536 774.754 75.0621 774.754 57.024H772.754ZM740.986 76.072C746.405 76.072 750.658 73.8581 753.537 70.328C756.398 66.8199 757.858 62.0708 757.858 57.024H755.858C755.858 61.7052 754.502 65.9801 751.987 69.064C749.49 72.1259 745.807 74.072 740.986 74.072V76.072ZM757.858 57.024C757.858 52.0384 756.396 47.3212 753.535 43.8301C750.657 40.3176 746.405 38.104 740.986 38.104V40.104C745.807 40.104 749.491 42.0504 751.989 45.0979C754.504 48.1668 755.858 52.4096 755.858 57.024H757.858ZM740.986 38.104C735.627 38.104 731.407 40.3209 728.547 43.8324C725.703 47.3226 724.242 52.0385 724.242 57.024H726.242C726.242 52.4095 727.596 48.1654 730.097 45.0956C732.581 42.0471 736.233 40.104 740.986 40.104V38.104ZM724.242 57.024C724.242 62.0708 725.702 66.8186 728.545 70.3257C731.406 73.8547 735.627 76.072 740.986 76.072V74.072C736.233 74.072 732.582 72.1293 730.099 69.0663C727.598 65.9814 726.242 61.7052 726.242 57.024H724.242ZM814.611 88.536C794.863 88.536 782.971 74.0607 782.971 57.024H780.971C780.971 75.0593 793.655 90.536 814.611 90.536V88.536ZM782.971 57.024C782.971 39.9926 794.858 25.64 814.611 25.64V23.64C793.66 23.64 780.971 38.9834 780.971 57.024H782.971ZM814.611 25.64C824.596 25.64 832.521 29.2531 837.951 34.9462C843.39 40.6475 846.379 48.489 846.379 57.024H848.379C848.379 48.023 845.224 39.6725 839.399 33.5658C833.565 27.4508 825.106 23.64 814.611 23.64V25.64ZM846.379 57.024C846.379 74.0579 834.49 88.536 814.611 88.536V90.536C835.692 90.536 848.379 75.0621 848.379 57.024H846.379ZM814.611 76.072C820.03 76.072 824.283 73.8581 827.162 70.328C830.023 66.8199 831.483 62.0708 831.483 57.024H829.483C829.483 61.7052 828.127 65.9801 825.612 69.064C823.115 72.1259 819.432 74.072 814.611 74.072V76.072ZM831.483 57.024C831.483 52.0384 830.021 47.3212 827.16 43.8301C824.282 40.3176 820.03 38.104 814.611 38.104V40.104C819.432 40.104 823.116 42.0504 825.614 45.0979C828.129 48.1668 829.483 52.4096 829.483 57.024H831.483ZM814.611 38.104C809.252 38.104 805.032 40.3209 802.172 43.8324C799.328 47.3226 797.867 52.0385 797.867 57.024H799.867C799.867 52.4095 801.221 48.1654 803.722 45.0956C806.206 42.0471 809.858 40.104 814.611 40.104V38.104ZM797.867 57.024C797.867 62.0708 799.327 66.8186 802.17 70.3257C805.031 73.8547 809.252 76.072 814.611 76.072V74.072C809.858 74.072 806.207 72.1293 803.724 69.0663C801.223 65.9814 799.867 61.7052 799.867 57.024H797.867ZM917.676 88V89H918.676V88H917.676ZM901.292 88H900.292V89H901.292V88ZM875.82 46.272L875.034 45.6542L874.82 45.9261V46.272H875.82ZM875.82 88V89H876.82V88H875.82ZM859.564 88H858.564V89H859.564V88ZM859.564 26.176V25.176H858.564V26.176H859.564ZM875.82 26.176H876.82V25.176H875.82V26.176ZM875.82 34.112H874.82V36.8058L876.578 34.7645L875.82 34.112ZM917.676 87H901.292V89H917.676V87ZM902.292 88V50.624H900.292V88H902.292ZM902.292 50.624C902.292 46.1708 901.126 42.9726 898.862 40.9089C896.615 38.8617 893.474 38.104 889.9 38.104V40.104C893.238 40.104 895.793 40.8183 897.514 42.3871C899.218 43.9394 900.292 46.5011 900.292 50.624H902.292ZM889.9 38.104C883.105 38.104 877.977 41.9081 875.034 45.6542L876.606 46.8898C879.295 43.4679 883.895 40.104 889.9 40.104V38.104ZM874.82 46.272V88H876.82V46.272H874.82ZM875.82 87H859.564V89H875.82V87ZM860.564 88V26.176H858.564V88H860.564ZM859.564 27.176H875.82V25.176H859.564V27.176ZM874.82 26.176V34.112H876.82V26.176H874.82ZM876.578 34.7645C880.38 30.3487 887.795 25.64 897.452 25.64V23.64C887.141 23.64 879.196 28.6593 875.062 33.4595L876.578 34.7645ZM897.452 25.64C904.115 25.64 908.881 27.5046 911.985 30.6827C915.093 33.8654 916.676 38.5096 916.676 44.352H918.676C918.676 38.1624 916.995 32.9505 913.415 29.2853C909.831 25.6154 904.485 23.64 897.452 23.64V25.64ZM916.676 44.352V88H918.676V44.352H916.676Z" fill="white" fill-opacity="0.08"/>
</svg>
