<svg width="918" height="91" viewBox="0 0 918 91" fill="none" xmlns="http://www.w3.org/2000/svg">
<path d="M54.455 65H0.0550003V-20.376H18.359V49H54.455V65ZM118.943 65H102.559V58.472C98.335 63.592 91.039 66.536 82.975 66.536C73.119 66.536 61.599 59.88 61.599 46.056C61.599 31.464 73.119 26.088 82.975 26.088C91.295 26.088 98.463 28.776 102.559 33.64V25.832C102.559 19.56 97.183 15.464 88.991 15.464C82.463 15.464 76.319 18.024 71.199 22.76L64.799 11.368C72.351 4.584 82.079 1.64 91.807 1.64C106.015 1.64 118.943 7.272 118.943 25.064V65ZM89.503 55.528C94.751 55.528 99.871 53.736 102.559 50.152V42.472C99.871 38.888 94.751 36.968 89.503 36.968C83.103 36.968 77.855 40.424 77.855 46.312C77.855 52.2 83.103 55.528 89.503 55.528ZM192.923 65H176.667V57.192C172.443 61.8 165.019 66.536 154.907 66.536C141.339 66.536 134.939 59.112 134.939 47.08V3.176H151.195V40.68C151.195 49.256 155.675 52.072 162.587 52.072C168.859 52.072 173.851 48.616 176.667 45.032V3.176H192.923V65ZM267.176 65H250.792V27.624C250.792 19.048 246.312 16.104 239.4 16.104C233 16.104 228.136 19.688 225.32 23.272V65H209.064V3.176H225.32V11.112C229.288 6.504 236.968 1.64 246.952 1.64C260.648 1.64 267.176 9.32 267.176 21.352V65ZM311.989 66.536C293.045 66.536 279.221 53.096 279.221 34.024C279.221 15.08 293.045 1.64 311.989 1.64C324.661 1.64 332.341 7.144 336.437 12.776L325.813 22.76C322.869 18.408 318.389 16.104 312.757 16.104C302.901 16.104 295.989 23.272 295.989 34.024C295.989 44.776 302.901 52.072 312.757 52.072C318.389 52.072 322.869 49.512 325.813 45.288L336.437 55.272C332.341 60.904 324.661 66.536 311.989 66.536ZM405.176 65H388.92V27.368C388.92 18.792 384.44 16.104 377.528 16.104C371.128 16.104 366.136 19.688 363.448 23.272V65H347.064V-20.376H363.448V11.112C367.416 6.504 374.968 1.64 385.08 1.64C398.648 1.64 405.176 9.064 405.176 21.096V65ZM429.378 -3.48C424.13 -3.48 419.778 -7.832 419.778 -13.208C419.778 -18.584 424.13 -22.808 429.378 -22.808C434.754 -22.808 439.106 -18.584 439.106 -13.208C439.106 -7.832 434.754 -3.48 429.378 -3.48ZM437.57 65H421.314V3.176H437.57V65ZM511.801 65H495.417V27.624C495.417 19.048 490.937 16.104 484.025 16.104C477.625 16.104 472.761 19.688 469.945 23.272V65H453.689V3.176H469.945V11.112C473.913 6.504 481.593 1.64 491.577 1.64C505.273 1.64 511.801 9.32 511.801 21.352V65ZM553.158 90.088C542.662 90.088 534.342 87.656 526.534 80.872L533.83 69.224C538.822 74.6 545.478 76.776 553.158 76.776C560.966 76.776 570.31 73.448 570.31 60.904V54.888C565.446 61.032 558.79 64.488 551.11 64.488C535.75 64.488 523.846 53.736 523.846 33.128C523.846 12.904 535.494 1.64 551.11 1.64C558.534 1.64 565.318 4.712 570.31 11.112V3.176H586.566V60.904C586.566 84.328 568.39 90.088 553.158 90.088ZM556.358 50.152C561.606 50.152 567.494 47.08 570.31 43.112V23.016C567.494 19.048 561.606 16.104 556.358 16.104C547.014 16.104 540.614 22.504 540.614 33.128C540.614 43.752 547.014 50.152 556.358 50.152ZM666.412 66.536C649.9 66.536 638.124 61.032 630.06 52.968L640.044 38.76C646.06 45.032 655.404 50.408 667.18 50.408C677.292 50.408 682.028 45.928 682.028 40.936C682.028 26.088 632.876 36.456 632.876 4.328C632.876 -9.88 645.164 -21.656 665.26 -21.656C678.828 -21.656 690.092 -17.56 698.54 -9.75201L688.428 3.816C681.516 -2.584 672.3 -5.528 663.596 -5.528C655.916 -5.528 651.564 -2.2 651.564 2.92C651.564 16.36 700.588 7.272 700.588 39.144C700.588 54.76 689.324 66.536 666.412 66.536ZM740.986 66.536C720.634 66.536 708.346 51.56 708.346 34.024C708.346 16.488 720.634 1.64 740.986 1.64C761.466 1.64 773.754 16.488 773.754 34.024C773.754 51.56 761.466 66.536 740.986 66.536ZM740.986 52.072C751.226 52.072 756.858 43.752 756.858 34.024C756.858 24.424 751.226 16.104 740.986 16.104C730.874 16.104 725.242 24.424 725.242 34.024C725.242 43.752 730.874 52.072 740.986 52.072ZM814.611 66.536C794.259 66.536 781.971 51.56 781.971 34.024C781.971 16.488 794.259 1.64 814.611 1.64C835.091 1.64 847.379 16.488 847.379 34.024C847.379 51.56 835.091 66.536 814.611 66.536ZM814.611 52.072C824.851 52.072 830.483 43.752 830.483 34.024C830.483 24.424 824.851 16.104 814.611 16.104C804.499 16.104 798.867 24.424 798.867 34.024C798.867 43.752 804.499 52.072 814.611 52.072ZM917.676 65H901.292V27.624C901.292 19.048 896.812 16.104 889.9 16.104C883.5 16.104 878.636 19.688 875.82 23.272V65H859.564V3.176H875.82V11.112C879.788 6.504 887.468 1.64 897.452 1.64C911.148 1.64 917.676 9.32 917.676 21.352V65Z" fill="#222222" fill-opacity="0.12"/>
<path d="M54.455 65V66H55.455V65H54.455ZM0.0550003 65H-0.945V66H0.0550003V65ZM0.0550003 -20.376V-21.376H-0.945V-20.376H0.0550003ZM18.359 -20.376H19.359V-21.376H18.359V-20.376ZM18.359 49H17.359V50H18.359V49ZM54.455 49H55.455V48H54.455V49ZM54.455 64H0.0550003V66H54.455V64ZM1.055 65V-20.376H-0.945V65H1.055ZM0.0550003 -19.376H18.359V-21.376H0.0550003V-19.376ZM17.359 -20.376V49H19.359V-20.376H17.359ZM18.359 50H54.455V48H18.359V50ZM53.455 49V65H55.455V49H53.455ZM118.943 65V66H119.943V65H118.943ZM102.559 65H101.559V66H102.559V65ZM102.559 58.472H103.559V55.6885L101.788 57.8356L102.559 58.472ZM102.559 33.64L101.794 34.2841L103.559 36.38V33.64H102.559ZM71.199 22.76L70.3272 23.2498L70.9478 24.3546L71.878 23.4941L71.199 22.76ZM64.799 11.368L64.1307 10.6241L63.5348 11.1594L63.9272 11.8578L64.799 11.368ZM102.559 50.152L103.359 50.752L103.559 50.4853V50.152H102.559ZM102.559 42.472H103.559V42.1387L103.359 41.872L102.559 42.472ZM118.943 64H102.559V66H118.943V64ZM103.559 65V58.472H101.559V65H103.559ZM101.788 57.8356C97.7995 62.6697 90.821 65.536 82.975 65.536V67.536C91.257 67.536 98.8705 64.5143 103.33 59.1084L101.788 57.8356ZM82.975 65.536C78.2552 65.536 73.1425 63.9382 69.2273 60.7086C65.3371 57.4995 62.599 52.6586 62.599 46.056H60.599C60.599 53.2774 63.6209 58.6765 67.9547 62.2514C72.2635 65.8058 77.8388 67.536 82.975 67.536V65.536ZM62.599 46.056C62.599 39.0591 65.3437 34.3642 69.2013 31.3922C73.0967 28.391 78.2087 27.088 82.975 27.088V25.088C77.8853 25.088 72.3093 26.473 67.9807 29.8078C63.6143 33.1718 60.599 38.4609 60.599 46.056H62.599ZM82.975 27.088C91.1104 27.088 97.9493 29.7184 101.794 34.2841L103.324 32.9959C98.9767 27.8336 91.4796 25.088 82.975 25.088V27.088ZM103.559 33.64V25.832H101.559V33.64H103.559ZM103.559 25.832C103.559 22.3788 102.065 19.495 99.4539 17.5012C96.8667 15.5259 93.2423 14.464 88.991 14.464V16.464C92.9317 16.464 96.0913 17.4501 98.2402 19.0908C100.365 20.713 101.559 23.0132 101.559 25.832H103.559ZM88.991 14.464C82.1869 14.464 75.8061 17.1362 70.52 22.0259L71.878 23.4941C76.8319 18.9118 82.7391 16.464 88.991 16.464V14.464ZM72.0708 22.2702L65.6708 10.8782L63.9272 11.8578L70.3272 23.2498L72.0708 22.2702ZM65.4673 12.1119C72.8014 5.52359 82.2754 2.64 91.807 2.64V0.639996C81.8826 0.639996 71.9006 3.6444 64.1307 10.6241L65.4673 12.1119ZM91.807 2.64C98.8049 2.64 105.347 4.0312 110.116 7.48951C114.83 10.9081 117.943 16.4428 117.943 25.064H119.943C119.943 15.8932 116.592 9.71587 111.29 5.87048C106.043 2.06479 99.0171 0.639996 91.807 0.639996V2.64ZM117.943 25.064V65H119.943V25.064H117.943ZM89.503 56.528C94.9232 56.528 100.41 54.6834 103.359 50.752L101.759 49.552C99.3316 52.7886 94.5788 54.528 89.503 54.528V56.528ZM103.559 50.152V42.472H101.559V50.152H103.559ZM103.359 41.872C100.419 37.9527 94.9442 35.968 89.503 35.968V37.968C94.5578 37.968 99.3225 39.8233 101.759 43.072L103.359 41.872ZM89.503 35.968C86.1348 35.968 82.9969 36.876 80.6751 38.6349C78.3298 40.4117 76.855 43.0352 76.855 46.312H78.855C78.855 43.7008 80.0042 41.6523 81.8829 40.2291C83.7851 38.788 86.4712 37.968 89.503 37.968V35.968ZM76.855 46.312C76.855 49.5915 78.3324 52.1859 80.6829 53.9309C83.0065 55.656 86.1429 56.528 89.503 56.528V54.528C86.4631 54.528 83.7755 53.736 81.8751 52.3251C80.0016 50.9341 78.855 48.9205 78.855 46.312H76.855ZM192.923 65V66H193.923V65H192.923ZM176.667 65H175.667V66H176.667V65ZM176.667 57.192H177.667V54.6212L175.93 56.5163L176.667 57.192ZM134.939 3.176V2.176H133.939V3.176H134.939ZM151.195 3.176H152.195V2.176H151.195V3.176ZM176.667 45.032L177.453 45.6498L177.667 45.3779V45.032H176.667ZM176.667 3.176V2.176H175.667V3.176H176.667ZM192.923 3.176H193.923V2.176H192.923V3.176ZM192.923 64H176.667V66H192.923V64ZM177.667 65V57.192H175.667V65H177.667ZM175.93 56.5163C171.859 60.9568 164.69 65.536 154.907 65.536V67.536C165.348 67.536 173.027 62.6432 177.404 57.8677L175.93 56.5163ZM154.907 65.536C148.301 65.536 143.602 63.7318 140.549 60.6197C137.492 57.5039 135.939 52.927 135.939 47.08H133.939C133.939 53.265 135.586 58.4161 139.121 62.0203C142.66 65.6283 147.945 67.536 154.907 67.536V65.536ZM135.939 47.08V3.176H133.939V47.08H135.939ZM134.939 4.176H151.195V2.176H134.939V4.176ZM150.195 3.176V40.68H152.195V3.176H150.195ZM150.195 40.68C150.195 45.133 151.361 48.3041 153.632 50.3371C155.881 52.3502 159.022 53.072 162.587 53.072V51.072C159.24 51.072 156.685 50.3858 154.966 48.8469C153.269 47.3279 152.195 44.803 152.195 40.68H150.195ZM162.587 53.072C169.237 53.072 174.497 49.413 177.453 45.6498L175.881 44.4142C173.205 47.819 168.481 51.072 162.587 51.072V53.072ZM177.667 45.032V3.176H175.667V45.032H177.667ZM176.667 4.176H192.923V2.176H176.667V4.176ZM191.923 3.176V65H193.923V3.176H191.923ZM267.176 65V66H268.176V65H267.176ZM250.792 65H249.792V66H250.792V65ZM225.32 23.272L224.534 22.6542L224.32 22.9261V23.272H225.32ZM225.32 65V66H226.32V65H225.32ZM209.064 65H208.064V66H209.064V65ZM209.064 3.176V2.176H208.064V3.176H209.064ZM225.32 3.176H226.32V2.176H225.32V3.176ZM225.32 11.112H224.32V13.8058L226.078 11.7645L225.32 11.112ZM267.176 64H250.792V66H267.176V64ZM251.792 65V27.624H249.792V65H251.792ZM251.792 27.624C251.792 23.1708 250.626 19.9726 248.362 17.9089C246.115 15.8617 242.974 15.104 239.4 15.104V17.104C242.738 17.104 245.293 17.8183 247.014 19.3871C248.718 20.9394 249.792 23.5011 249.792 27.624H251.792ZM239.4 15.104C232.605 15.104 227.477 18.9081 224.534 22.6542L226.106 23.8898C228.795 20.4679 233.395 17.104 239.4 17.104V15.104ZM224.32 23.272V65H226.32V23.272H224.32ZM225.32 64H209.064V66H225.32V64ZM210.064 65V3.176H208.064V65H210.064ZM209.064 4.176H225.32V2.176H209.064V4.176ZM224.32 3.176V11.112H226.32V3.176H224.32ZM226.078 11.7645C229.88 7.34867 237.295 2.64 246.952 2.64V0.639996C236.641 0.639996 228.696 5.65933 224.562 10.4595L226.078 11.7645ZM246.952 2.64C253.615 2.64 258.381 4.50458 261.485 7.6827C264.593 10.8654 266.176 15.5096 266.176 21.352H268.176C268.176 15.1624 266.495 9.95055 262.915 6.2853C259.331 2.61541 253.985 0.639996 246.952 0.639996V2.64ZM266.176 21.352V65H268.176V21.352H266.176ZM336.437 12.776L337.122 13.5047L337.764 12.9009L337.246 12.1878L336.437 12.776ZM325.813 22.76L324.985 23.3203L325.642 24.2926L326.498 23.4887L325.813 22.76ZM325.813 45.288L326.498 44.5593L325.654 43.7667L324.993 44.7162L325.813 45.288ZM336.437 55.272L337.246 55.8602L337.764 55.1471L337.122 54.5433L336.437 55.272ZM311.989 65.536C293.584 65.536 280.221 52.5307 280.221 34.024H278.221C278.221 53.6613 292.506 67.536 311.989 67.536V65.536ZM280.221 34.024C280.221 15.6479 293.582 2.64 311.989 2.64V0.639996C292.508 0.639996 278.221 14.5121 278.221 34.024H280.221ZM311.989 2.64C324.331 2.64 331.714 7.98252 335.628 13.3642L337.246 12.1878C332.968 6.30547 324.991 0.639996 311.989 0.639996V2.64ZM335.752 12.0473L325.128 22.0313L326.498 23.4887L337.122 13.5047L335.752 12.0473ZM326.641 22.1997C323.498 17.5535 318.697 15.104 312.757 15.104V17.104C318.081 17.104 322.24 19.2625 324.985 23.3203L326.641 22.1997ZM312.757 15.104C307.577 15.104 303.114 16.9934 299.95 20.3456C296.79 23.6938 294.989 28.4318 294.989 34.024H296.989C296.989 28.8642 298.645 24.6422 301.404 21.7184C304.16 18.7986 308.081 17.104 312.757 17.104V15.104ZM294.989 34.024C294.989 39.6156 296.789 44.3836 299.946 47.7627C303.108 51.1467 307.571 53.072 312.757 53.072V51.072C308.087 51.072 304.166 49.3493 301.408 46.3973C298.645 43.4404 296.989 39.1844 296.989 34.024H294.989ZM312.757 53.072C318.729 53.072 323.51 50.3415 326.633 45.8598L324.993 44.7162C322.228 48.6825 318.049 51.072 312.757 51.072V53.072ZM325.128 46.0167L335.752 56.0007L337.122 54.5433L326.498 44.5593L325.128 46.0167ZM335.628 54.6838C331.709 60.0732 324.322 65.536 311.989 65.536V67.536C325 67.536 332.973 61.7348 337.246 55.8602L335.628 54.6838ZM405.176 65V66H406.176V65H405.176ZM388.92 65H387.92V66H388.92V65ZM363.448 23.272L362.648 22.672L362.448 22.9387V23.272H363.448ZM363.448 65V66H364.448V65H363.448ZM347.064 65H346.064V66H347.064V65ZM347.064 -20.376V-21.376H346.064V-20.376H347.064ZM363.448 -20.376H364.448V-21.376H363.448V-20.376ZM363.448 11.112H362.448V13.8058L364.206 11.7645L363.448 11.112ZM405.176 64H388.92V66H405.176V64ZM389.92 65V27.368H387.92V65H389.92ZM389.92 27.368C389.92 22.9153 388.754 19.7711 386.476 17.7689C384.225 15.79 381.084 15.104 377.528 15.104V17.104C380.884 17.104 383.439 17.762 385.156 19.2711C386.846 20.7569 387.92 23.2447 387.92 27.368H389.92ZM377.528 15.104C370.743 15.104 365.478 18.8984 362.648 22.672L364.248 23.872C366.794 20.4776 371.513 17.104 377.528 17.104V15.104ZM362.448 23.272V65H364.448V23.272H362.448ZM363.448 64H347.064V66H363.448V64ZM348.064 65V-20.376H346.064V65H348.064ZM347.064 -19.376H363.448V-21.376H347.064V-19.376ZM362.448 -20.376V11.112H364.448V-20.376H362.448ZM364.206 11.7645C368.01 7.34663 375.297 2.64 385.08 2.64V0.639996C374.639 0.639996 366.822 5.66136 362.69 10.4595L364.206 11.7645ZM385.08 2.64C391.686 2.64 396.42 4.44442 399.506 7.55971C402.593 10.6772 404.176 15.254 404.176 21.096H406.176C406.176 14.906 404.495 9.75476 400.926 6.15228C397.356 2.54757 392.042 0.639996 385.08 0.639996V2.64ZM404.176 21.096V65H406.176V21.096H404.176ZM437.57 65V66H438.57V65H437.57ZM421.314 65H420.314V66H421.314V65ZM421.314 3.176V2.176H420.314V3.176H421.314ZM437.57 3.176H438.57V2.176H437.57V3.176ZM429.378 -4.48C424.691 -4.48 420.778 -8.37566 420.778 -13.208H418.778C418.778 -7.28835 423.569 -2.48 429.378 -2.48V-4.48ZM420.778 -13.208C420.778 -18.0231 424.674 -21.808 429.378 -21.808V-23.808C423.586 -23.808 418.778 -19.145 418.778 -13.208H420.778ZM429.378 -21.808C434.219 -21.808 438.106 -18.0145 438.106 -13.208H440.106C440.106 -19.1535 435.289 -23.808 429.378 -23.808V-21.808ZM438.106 -13.208C438.106 -8.38429 434.202 -4.48 429.378 -4.48V-2.48C435.306 -2.48 440.106 -7.27972 440.106 -13.208H438.106ZM437.57 64H421.314V66H437.57V64ZM422.314 65V3.176H420.314V65H422.314ZM421.314 4.176H437.57V2.176H421.314V4.176ZM436.57 3.176V65H438.57V3.176H436.57ZM511.801 65V66H512.801V65H511.801ZM495.417 65H494.417V66H495.417V65ZM469.945 23.272L469.159 22.6542L468.945 22.9261V23.272H469.945ZM469.945 65V66H470.945V65H469.945ZM453.689 65H452.689V66H453.689V65ZM453.689 3.176V2.176H452.689V3.176H453.689ZM469.945 3.176H470.945V2.176H469.945V3.176ZM469.945 11.112H468.945V13.8058L470.703 11.7645L469.945 11.112ZM511.801 64H495.417V66H511.801V64ZM496.417 65V27.624H494.417V65H496.417ZM496.417 27.624C496.417 23.1708 495.251 19.9726 492.987 17.9089C490.74 15.8617 487.599 15.104 484.025 15.104V17.104C487.363 17.104 489.918 17.8183 491.639 19.3871C493.343 20.9394 494.417 23.5011 494.417 27.624H496.417ZM484.025 15.104C477.23 15.104 472.102 18.9081 469.159 22.6542L470.731 23.8898C473.42 20.4679 478.02 17.104 484.025 17.104V15.104ZM468.945 23.272V65H470.945V23.272H468.945ZM469.945 64H453.689V66H469.945V64ZM454.689 65V3.176H452.689V65H454.689ZM453.689 4.176H469.945V2.176H453.689V4.176ZM468.945 3.176V11.112H470.945V3.176H468.945ZM470.703 11.7645C474.505 7.34867 481.92 2.64 491.577 2.64V0.639996C481.266 0.639996 473.321 5.65933 469.187 10.4595L470.703 11.7645ZM491.577 2.64C498.24 2.64 503.006 4.50458 506.11 7.6827C509.218 10.8654 510.801 15.5096 510.801 21.352H512.801C512.801 15.1624 511.12 9.95055 507.54 6.2853C503.956 2.61541 498.61 0.639996 491.577 0.639996V2.64ZM510.801 21.352V65H512.801V21.352H510.801ZM526.534 80.872L525.687 80.3412L525.233 81.0659L525.878 81.6269L526.534 80.872ZM533.83 69.224L534.563 68.5435L533.675 67.5875L532.983 68.6932L533.83 69.224ZM570.31 54.888H571.31V52.0138L569.526 54.2673L570.31 54.888ZM570.31 11.112L569.521 11.727L571.31 14.02V11.112H570.31ZM570.31 3.176V2.176H569.31V3.176H570.31ZM586.566 3.176H587.566V2.176H586.566V3.176ZM570.31 43.112L571.125 43.6907L571.31 43.4308V43.112H570.31ZM570.31 23.016H571.31V22.6972L571.125 22.4373L570.31 23.016ZM553.158 89.088C542.849 89.088 534.779 86.7111 527.19 80.1171L525.878 81.6269C533.905 88.6009 542.475 91.088 553.158 91.088V89.088ZM527.381 81.4028L534.677 69.7548L532.983 68.6932L525.687 80.3412L527.381 81.4028ZM533.097 69.9044C538.328 75.5372 545.282 77.776 553.158 77.776V75.776C545.674 75.776 539.316 73.6628 534.563 68.5435L533.097 69.9044ZM553.158 77.776C557.178 77.776 561.703 76.9233 565.249 74.3538C568.848 71.7453 571.31 67.4602 571.31 60.904H569.31C569.31 66.8918 567.1 70.5427 564.075 72.7343C560.997 74.9647 556.946 75.776 553.158 75.776V77.776ZM571.31 60.904V54.888H569.31V60.904H571.31ZM569.526 54.2673C564.836 60.1918 558.46 63.488 551.11 63.488V65.488C559.12 65.488 566.056 61.8722 571.094 55.5087L569.526 54.2673ZM551.11 63.488C543.67 63.488 537.133 60.8895 532.45 55.8549C527.764 50.8162 524.846 43.2402 524.846 33.128H522.846C522.846 43.6238 525.88 51.7278 530.986 57.217C536.095 62.7105 543.19 65.488 551.11 65.488V63.488ZM524.846 33.128C524.846 23.2062 527.701 15.5937 532.362 10.4731C537.016 5.3593 543.552 2.64 551.11 2.64V0.639996C543.052 0.639996 535.956 3.55269 530.882 9.12688C525.815 14.6943 522.846 22.8258 522.846 33.128H524.846ZM551.11 2.64C558.232 2.64 564.723 5.57512 569.521 11.727L571.099 10.497C565.913 3.84887 558.836 0.639996 551.11 0.639996V2.64ZM571.31 11.112V3.176H569.31V11.112H571.31ZM570.31 4.176H586.566V2.176H570.31V4.176ZM585.566 3.176V60.904H587.566V3.176H585.566ZM585.566 60.904C585.566 72.3132 581.163 79.2858 575.013 83.4521C568.799 87.6617 560.677 89.088 553.158 89.088V91.088C560.871 91.088 569.453 89.6343 576.135 85.1079C582.881 80.5382 587.566 72.9188 587.566 60.904H585.566ZM556.358 51.152C561.922 51.152 568.117 47.9296 571.125 43.6907L569.495 42.5333C566.871 46.2304 561.29 49.152 556.358 49.152V51.152ZM571.31 43.112V23.016H569.31V43.112H571.31ZM571.125 22.4373C568.109 18.186 561.906 15.104 556.358 15.104V17.104C561.306 17.104 566.88 19.91 569.495 23.5947L571.125 22.4373ZM556.358 15.104C551.45 15.104 547.237 16.7906 544.255 19.945C541.278 23.0949 539.614 27.6151 539.614 33.128H541.614C541.614 28.0169 543.15 24.0251 545.709 21.319C548.263 18.6174 551.922 17.104 556.358 17.104V15.104ZM539.614 33.128C539.614 38.6409 541.278 43.1611 544.255 46.311C547.237 49.4654 551.45 51.152 556.358 51.152V49.152C551.922 49.152 548.263 47.6386 545.709 44.937C543.15 42.2309 541.614 38.2391 541.614 33.128H539.614ZM630.06 52.968L629.242 52.3931L628.759 53.0808L629.353 53.6751L630.06 52.968ZM640.044 38.76L640.766 38.0678L639.924 37.1908L639.226 38.1851L640.044 38.76ZM698.54 -9.75201L699.342 -9.15443L699.879 -9.87576L699.219 -10.4864L698.54 -9.75201ZM688.428 3.816L687.749 4.54976L688.565 5.30565L689.23 4.41357L688.428 3.816ZM666.412 65.536C650.143 65.536 638.628 60.1219 630.767 52.2609L629.353 53.6751C637.62 61.9421 649.657 67.536 666.412 67.536V65.536ZM630.878 53.5429L640.862 39.3349L639.226 38.1851L629.242 52.3931L630.878 53.5429ZM639.322 39.4522C645.492 45.8844 655.085 51.408 667.18 51.408V49.408C655.723 49.408 646.628 44.1796 640.766 38.0678L639.322 39.4522ZM667.18 51.408C672.371 51.408 676.308 50.2597 678.976 48.3585C681.667 46.4415 683.028 43.7798 683.028 40.936H681.028C681.028 43.0842 680.021 45.1585 677.816 46.7295C675.588 48.3163 672.101 49.408 667.18 49.408V51.408ZM683.028 40.936C683.028 38.7557 682.107 37.0339 680.582 35.6719C679.093 34.3419 677.027 33.3509 674.679 32.5265C672.321 31.6983 669.587 31.0085 666.707 30.3262C663.81 29.6399 660.764 28.961 657.71 28.1458C651.592 26.5128 645.624 24.3762 641.19 20.7407C636.811 17.1501 633.876 12.0565 633.876 4.328H631.876C631.876 12.6635 635.085 18.3219 639.922 22.2873C644.704 26.2078 651.024 28.4311 657.194 30.0782C660.284 30.903 663.382 31.5941 666.245 32.2723C669.125 32.9545 671.767 33.6237 674.017 34.4135C676.277 35.2071 678.051 36.0931 679.25 37.1636C680.413 38.2021 681.028 39.4043 681.028 40.936H683.028ZM633.876 4.328C633.876 -9.17676 645.552 -20.656 665.26 -20.656V-22.656C644.776 -22.656 631.876 -10.5833 631.876 4.328H633.876ZM665.26 -20.656C678.618 -20.656 689.627 -16.6285 697.861 -9.01763L699.219 -10.4864C690.557 -18.4916 679.038 -22.656 665.26 -22.656V-20.656ZM697.738 -10.3496L687.626 3.21842L689.23 4.41357L699.342 -9.15443L697.738 -10.3496ZM689.107 3.08224C681.983 -3.51439 672.512 -6.528 663.596 -6.528V-4.528C672.088 -4.528 681.049 -1.65361 687.749 4.54976L689.107 3.08224ZM663.596 -6.528C659.629 -6.528 656.391 -5.67068 654.116 -4.03602C651.806 -2.37536 650.564 0.0394249 650.564 2.92H652.564C652.564 0.680569 653.498 -1.12864 655.284 -2.41199C657.105 -3.72132 659.883 -4.528 663.596 -4.528V-6.528ZM650.564 2.92C650.564 4.9617 651.517 6.55449 653.036 7.80104C654.519 9.01821 656.574 9.93661 658.907 10.7164C661.253 11.5004 663.975 12.1736 666.844 12.8568C669.727 13.5434 672.768 14.2419 675.809 15.0838C681.906 16.7711 687.861 18.9979 692.287 22.6954C696.661 26.3504 699.588 31.48 699.588 39.144H701.588C701.588 30.872 698.387 25.1856 693.569 21.1606C688.803 17.1781 682.502 14.8609 676.343 13.1562C673.256 12.3021 670.169 11.5926 667.307 10.9112C664.431 10.2264 661.791 9.57161 659.541 8.81956C657.278 8.06339 655.503 7.23778 654.305 6.25495C653.143 5.30151 652.564 4.23829 652.564 2.92H650.564ZM699.588 39.144C699.588 46.6985 696.872 53.2557 691.439 57.9386C685.991 62.6344 677.705 65.536 666.412 65.536V67.536C678.031 67.536 686.833 64.5496 692.745 59.4534C698.672 54.3443 701.588 47.2055 701.588 39.144H699.588ZM740.986 65.536C721.238 65.536 709.346 51.0607 709.346 34.024H707.346C707.346 52.0593 720.03 67.536 740.986 67.536V65.536ZM709.346 34.024C709.346 16.9926 721.233 2.64 740.986 2.64V0.639996C720.035 0.639996 707.346 15.9834 707.346 34.024H709.346ZM740.986 2.64C750.971 2.64 758.896 6.25315 764.326 11.9462C769.765 17.6475 772.754 25.489 772.754 34.024H774.754C774.754 25.023 771.599 16.6725 765.774 10.5658C759.94 4.45085 751.481 0.639996 740.986 0.639996V2.64ZM772.754 34.024C772.754 51.0579 760.865 65.536 740.986 65.536V67.536C762.067 67.536 774.754 52.0621 774.754 34.024H772.754ZM740.986 53.072C746.405 53.072 750.658 50.8581 753.537 47.328C756.398 43.8199 757.858 39.0708 757.858 34.024H755.858C755.858 38.7052 754.502 42.9801 751.987 46.064C749.49 49.1259 745.807 51.072 740.986 51.072V53.072ZM757.858 34.024C757.858 29.0384 756.396 24.3212 753.535 20.8301C750.657 17.3176 746.405 15.104 740.986 15.104V17.104C745.807 17.104 749.491 19.0504 751.989 22.0979C754.504 25.1668 755.858 29.4096 755.858 34.024H757.858ZM740.986 15.104C735.627 15.104 731.407 17.3209 728.547 20.8324C725.703 24.3226 724.242 29.0385 724.242 34.024H726.242C726.242 29.4095 727.596 25.1654 730.097 22.0956C732.581 19.0471 736.233 17.104 740.986 17.104V15.104ZM724.242 34.024C724.242 39.0708 725.702 43.8186 728.545 47.3257C731.406 50.8547 735.627 53.072 740.986 53.072V51.072C736.233 51.072 732.582 49.1293 730.099 46.0663C727.598 42.9814 726.242 38.7052 726.242 34.024H724.242ZM814.611 65.536C794.863 65.536 782.971 51.0607 782.971 34.024H780.971C780.971 52.0593 793.655 67.536 814.611 67.536V65.536ZM782.971 34.024C782.971 16.9926 794.858 2.64 814.611 2.64V0.639996C793.66 0.639996 780.971 15.9834 780.971 34.024H782.971ZM814.611 2.64C824.596 2.64 832.521 6.25315 837.951 11.9462C843.39 17.6475 846.379 25.489 846.379 34.024H848.379C848.379 25.023 845.224 16.6725 839.399 10.5658C833.565 4.45085 825.106 0.639996 814.611 0.639996V2.64ZM846.379 34.024C846.379 51.0579 834.49 65.536 814.611 65.536V67.536C835.692 67.536 848.379 52.0621 848.379 34.024H846.379ZM814.611 53.072C820.03 53.072 824.283 50.8581 827.162 47.328C830.023 43.8199 831.483 39.0708 831.483 34.024H829.483C829.483 38.7052 828.127 42.9801 825.612 46.064C823.115 49.1259 819.432 51.072 814.611 51.072V53.072ZM831.483 34.024C831.483 29.0384 830.021 24.3212 827.16 20.8301C824.282 17.3176 820.03 15.104 814.611 15.104V17.104C819.432 17.104 823.116 19.0504 825.614 22.0979C828.129 25.1668 829.483 29.4096 829.483 34.024H831.483ZM814.611 15.104C809.252 15.104 805.032 17.3209 802.172 20.8324C799.328 24.3226 797.867 29.0385 797.867 34.024H799.867C799.867 29.4095 801.221 25.1654 803.722 22.0956C806.206 19.0471 809.858 17.104 814.611 17.104V15.104ZM797.867 34.024C797.867 39.0708 799.327 43.8186 802.17 47.3257C805.031 50.8547 809.252 53.072 814.611 53.072V51.072C809.858 51.072 806.207 49.1293 803.724 46.0663C801.223 42.9814 799.867 38.7052 799.867 34.024H797.867ZM917.676 65V66H918.676V65H917.676ZM901.292 65H900.292V66H901.292V65ZM875.82 23.272L875.034 22.6542L874.82 22.9261V23.272H875.82ZM875.82 65V66H876.82V65H875.82ZM859.564 65H858.564V66H859.564V65ZM859.564 3.176V2.176H858.564V3.176H859.564ZM875.82 3.176H876.82V2.176H875.82V3.176ZM875.82 11.112H874.82V13.8058L876.578 11.7645L875.82 11.112ZM917.676 64H901.292V66H917.676V64ZM902.292 65V27.624H900.292V65H902.292ZM902.292 27.624C902.292 23.1708 901.126 19.9726 898.862 17.9089C896.615 15.8617 893.474 15.104 889.9 15.104V17.104C893.238 17.104 895.793 17.8183 897.514 19.3871C899.218 20.9394 900.292 23.5011 900.292 27.624H902.292ZM889.9 15.104C883.105 15.104 877.977 18.9081 875.034 22.6542L876.606 23.8898C879.295 20.4679 883.895 17.104 889.9 17.104V15.104ZM874.82 23.272V65H876.82V23.272H874.82ZM875.82 64H859.564V66H875.82V64ZM860.564 65V3.176H858.564V65H860.564ZM859.564 4.176H875.82V2.176H859.564V4.176ZM874.82 3.176V11.112H876.82V3.176H874.82ZM876.578 11.7645C880.38 7.34867 887.795 2.64 897.452 2.64V0.639996C887.141 0.639996 879.196 5.65933 875.062 10.4595L876.578 11.7645ZM897.452 2.64C904.115 2.64 908.881 4.50458 911.985 7.6827C915.093 10.8654 916.676 15.5096 916.676 21.352H918.676C918.676 15.1624 916.995 9.95055 913.415 6.2853C909.831 2.61541 904.485 0.639996 897.452 0.639996V2.64ZM916.676 21.352V65H918.676V21.352H916.676Z" fill="white" fill-opacity="0.08"/>
</svg>
