<svg width="231" height="49" viewBox="0 0 231 49" fill="none" xmlns="http://www.w3.org/2000/svg">
<path d="M16.6095 39.6471C9.32939 39.6471 4.26024 37.3283 0.647125 33.9309L5.55449 26.7046C8.14299 29.2931 12.1336 31.4502 17.0949 31.4502C20.2227 31.4502 22.164 30.3717 22.164 28.5921C22.164 23.8465 1.83352 27.7832 1.83352 13.9239C1.83352 7.88407 6.90267 2.49136 16.1242 2.49136C21.8944 2.49136 26.9096 4.21702 30.7384 7.50658L25.6693 14.4632C22.6494 11.9286 18.7127 10.6883 15.1535 10.6883C12.4572 10.6883 11.2708 11.605 11.2708 13.1689C11.2708 17.5909 31.6013 14.2475 31.6013 27.6214C31.6013 34.8476 26.2625 39.6471 16.6095 39.6471ZM61.6088 39H53.304V35.8722C51.6862 37.7057 48.7202 39.6471 44.2982 39.6471C38.4201 39.6471 35.7237 36.2497 35.7237 31.5041V12.9532H44.0285V28.0528C44.0285 31.2345 45.6463 32.313 48.3427 32.313C50.7155 32.313 52.3333 31.0188 53.304 29.7785V12.9532H61.6088V39ZM83.654 39.6471C80.7419 39.6471 78.0995 38.5147 75.9424 35.9262V48.9226H67.6376V12.9532H75.9424V15.9731C77.9916 13.4925 80.688 12.3061 83.654 12.3061C90.1792 12.3061 95.0865 17.1595 95.0865 25.9496C95.0865 34.7937 90.1792 39.6471 83.654 39.6471ZM80.9037 32.313C84.1393 32.313 86.62 29.8863 86.62 25.9496C86.62 22.0669 84.1393 19.6402 80.9037 19.6402C79.1241 19.6402 76.967 20.6109 75.9424 22.013V29.9402C76.967 31.2884 79.1241 32.313 80.9037 32.313ZM111.905 39.6471C103.869 39.6471 97.7218 34.4162 97.7218 25.9496C97.7218 18.3999 103.384 12.3061 111.527 12.3061C119.239 12.3061 124.847 17.9684 124.847 26.8125V28.6999H106.296C106.889 31.0188 109.046 32.9602 112.821 32.9602C114.655 32.9602 117.675 32.1513 119.185 30.7492L122.798 36.1958C120.209 38.5147 115.895 39.6471 111.905 39.6471ZM116.92 23.0376C116.704 21.2041 115.356 18.993 111.527 18.993C107.914 18.993 106.512 21.1501 106.188 23.0376H116.92ZM137.242 39H128.938V12.9532H137.242V16.1349C138.968 14.0318 142.311 12.2522 145.385 12.2522V20.2334C144.9 20.0716 144.199 20.0177 143.336 20.0177C141.179 20.0177 138.321 20.9344 137.242 22.3905V39Z" fill="white"/>
<path d="M160.088 25.2369H172.965L175.066 15.7376H162.189L164.991 3H154.107L146.187 39H157.07L160.088 25.2369Z" fill="white"/>
<path d="M160.088 25.2369H172.965L175.066 15.7376H162.189L164.991 3H154.107L146.187 39H157.07L160.088 25.2369Z" fill="url(#paint0_linear_168_3285)"/>
<path fill-rule="evenodd" clip-rule="evenodd" d="M190.729 3L186.026 10.9372L190.9 12.2432L183.149 25.7757L198.596 14.3054L194.94 13.3258L201.914 4.72497C205.106 6.56197 207.254 9.77275 207.254 13.9025C207.254 20.2714 203.105 25.1829 198.418 26.8561L201.974 39H190.013L187.534 27.6657H183.17L180.691 39H169.808L177.728 3H190.729Z" fill="white"/>
<path fill-rule="evenodd" clip-rule="evenodd" d="M190.729 3L186.026 10.9372L190.9 12.2432L183.149 25.7757L198.596 14.3054L194.94 13.3258L201.914 4.72497C205.106 6.56197 207.254 9.77275 207.254 13.9025C207.254 20.2714 203.105 25.1829 198.418 26.8561L201.974 39H190.013L187.534 27.6657H183.17L180.691 39H169.808L177.728 3H190.729Z" fill="url(#paint1_linear_168_3285)"/>
<path d="M213.558 12.1848C212.819 12.1848 212.198 11.5632 212.198 10.824C212.198 10.0848 212.819 9.4632 213.558 9.4632C214.298 9.4632 214.919 10.0848 214.919 10.824C214.919 11.5632 214.298 12.1848 213.558 12.1848ZM224.308 12H222.157V11.1432C221.603 11.8152 220.645 12.2016 219.587 12.2016C218.293 12.2016 216.781 11.328 216.781 9.5136C216.781 7.5984 218.293 6.8928 219.587 6.8928C220.679 6.8928 221.62 7.2456 222.157 7.884V6.8592C222.157 6.036 221.452 5.4984 220.376 5.4984C219.52 5.4984 218.713 5.8344 218.041 6.456L217.201 4.9608C218.192 4.0704 219.469 3.684 220.746 3.684C222.611 3.684 224.308 4.4232 224.308 6.7584V12ZM220.444 10.7568C221.132 10.7568 221.804 10.5216 222.157 10.0512V9.0432C221.804 8.5728 221.132 8.3208 220.444 8.3208C219.604 8.3208 218.915 8.7744 218.915 9.5472C218.915 10.32 219.604 10.7568 220.444 10.7568ZM227.969 3.012C227.281 3.012 226.709 2.4408 226.709 1.7352C226.709 1.0296 227.281 0.4752 227.969 0.4752C228.675 0.4752 229.246 1.0296 229.246 1.7352C229.246 2.4408 228.675 3.012 227.969 3.012ZM229.045 12H226.911V3.8856H229.045V12Z" fill="white"/>
<defs>
<linearGradient id="paint0_linear_168_3285" x1="160.626" y1="3" x2="160.626" y2="39" gradientUnits="userSpaceOnUse">
<stop stop-color="#ED6D31"/>
<stop offset="1" stop-color="#EB4432"/>
</linearGradient>
<linearGradient id="paint1_linear_168_3285" x1="188.531" y1="3" x2="188.531" y2="39" gradientUnits="userSpaceOnUse">
<stop stop-color="#ED6D31"/>
<stop offset="1" stop-color="#EB4432"/>
</linearGradient>
</defs>
</svg>
