<svg width="305" height="196" viewBox="0 0 305 196" fill="none" xmlns="http://www.w3.org/2000/svg">
<path d="M49.064 43H37.416L30.952 16.248L24.488 43H12.84L0.616 0.311996H12.968L19.432 28.792L26.728 0.311996H35.176L42.472 28.792L48.872 0.311996H61.288L49.064 43ZM76.7445 43.768C67.2085 43.768 59.9125 37.56 59.9125 27.512C59.9125 18.552 66.6325 11.32 76.2965 11.32C85.4485 11.32 92.1045 18.04 92.1045 28.536V30.776H70.0885C70.7925 33.528 73.3525 35.832 77.8325 35.832C80.0085 35.832 83.5925 34.872 85.3845 33.208L89.6725 39.672C86.6005 42.424 81.4805 43.768 76.7445 43.768ZM82.6965 24.056C82.4405 21.88 80.8405 19.256 76.2965 19.256C72.0085 19.256 70.3445 21.816 69.9605 24.056H82.6965ZM141.43 43H131.574V39.928C129.654 42.232 125.942 43.768 121.974 43.768C117.238 43.768 111.35 40.504 111.35 33.592C111.35 26.104 117.238 23.608 121.974 23.608C126.07 23.608 129.718 24.952 131.574 27.256V24.184C131.574 21.496 129.27 19.64 125.302 19.64C122.23 19.64 119.158 20.856 116.662 22.968L113.014 16.12C116.982 12.728 122.294 11.32 127.03 11.32C134.454 11.32 141.43 14.072 141.43 23.672V43ZM126.07 37.304C128.246 37.304 130.55 36.536 131.574 35.064V32.312C130.55 30.84 128.246 30.136 126.07 30.136C123.51 30.136 121.142 31.288 121.142 33.72C121.142 36.152 123.51 37.304 126.07 37.304ZM158.44 43H148.584V12.088H158.44V15.864C160.488 13.368 164.456 11.256 168.104 11.256V20.728C167.528 20.536 166.696 20.472 165.672 20.472C163.112 20.472 159.72 21.56 158.44 23.288V43ZM187.432 43.768C177.896 43.768 170.6 37.56 170.6 27.512C170.6 18.552 177.32 11.32 186.984 11.32C196.136 11.32 202.792 18.04 202.792 28.536V30.776H180.776C181.48 33.528 184.04 35.832 188.52 35.832C190.696 35.832 194.28 34.872 196.072 33.208L200.36 39.672C197.288 42.424 192.168 43.768 187.432 43.768ZM193.384 24.056C193.128 21.88 191.528 19.256 186.984 19.256C182.696 19.256 181.032 21.816 180.648 24.056H193.384Z" fill="white"/>
<path d="M32.808 119H4.648V76.312H15.656V109.4H32.808V119ZM66.055 119H56.199V115.928C54.279 118.232 50.567 119.768 46.599 119.768C41.863 119.768 35.975 116.504 35.975 109.592C35.975 102.104 41.863 99.608 46.599 99.608C50.695 99.608 54.343 100.952 56.199 103.256V100.184C56.199 97.496 53.895 95.64 49.927 95.64C46.855 95.64 43.783 96.856 41.287 98.968L37.639 92.12C41.607 88.728 46.919 87.32 51.655 87.32C59.079 87.32 66.055 90.072 66.055 99.672V119ZM50.695 113.304C52.871 113.304 55.175 112.536 56.199 111.064V108.312C55.175 106.84 52.871 106.136 50.695 106.136C48.135 106.136 45.767 107.288 45.767 109.72C45.767 112.152 48.135 113.304 50.695 113.304ZM103.929 119H94.073V115.288C92.153 117.464 88.633 119.768 83.385 119.768C76.409 119.768 73.209 115.736 73.209 110.104V88.088H83.065V106.008C83.065 109.784 84.985 111.064 88.185 111.064C91.001 111.064 92.921 109.528 94.073 108.056V88.088H103.929V119ZM141.868 119H132.012V101.144C132.012 97.368 130.028 96.024 126.956 96.024C124.012 96.024 122.092 97.624 120.94 99.032V119H111.084V88.088H120.94V91.864C122.796 89.688 126.444 87.32 131.692 87.32C138.668 87.32 141.868 91.416 141.868 97.112V119ZM163.87 119.768C154.206 119.768 147.038 113.176 147.038 103.512C147.038 93.848 154.206 87.32 163.87 87.32C170.59 87.32 174.686 90.264 176.542 93.016L170.142 98.968C168.926 97.176 166.942 96.024 164.318 96.024C160.222 96.024 157.086 98.84 157.086 103.512C157.086 108.184 160.222 111.064 164.318 111.064C166.942 111.064 168.926 109.784 170.142 108.056L176.542 114.072C174.686 116.76 170.59 119.768 163.87 119.768ZM211.87 119H202.014V101.016C202.014 97.24 200.03 96.024 196.894 96.024C194.014 96.024 192.094 97.624 190.942 99.032V119H181.086V76.312H190.942V91.864C192.798 89.688 196.446 87.32 201.63 87.32C208.67 87.32 211.87 91.288 211.87 96.984V119ZM223.95 85.336C220.814 85.336 218.318 82.776 218.318 79.64C218.318 76.504 220.814 74.008 223.95 74.008C227.086 74.008 229.646 76.504 229.646 79.64C229.646 82.776 227.086 85.336 223.95 85.336ZM228.878 119H219.022V88.088H228.878V119ZM266.806 119H256.95V101.144C256.95 97.368 254.966 96.024 251.894 96.024C248.95 96.024 247.03 97.624 245.878 99.032V119H236.022V88.088H245.878V91.864C247.734 89.688 251.382 87.32 256.63 87.32C263.606 87.32 266.806 91.416 266.806 97.112V119ZM286.823 131.544C281.511 131.544 277.095 130.2 273.127 126.936L277.415 120.024C279.847 122.584 283.239 123.608 286.823 123.608C290.087 123.608 294.695 122.2 294.695 116.312V113.944C292.135 117.016 289.063 118.488 285.543 118.488C277.991 118.488 271.975 113.304 271.975 102.872C271.975 92.696 277.799 87.32 285.543 87.32C288.999 87.32 292.199 88.664 294.695 91.736V88.088H304.551V116.312C304.551 128.856 294.503 131.544 286.823 131.544ZM288.807 109.784C290.855 109.784 293.479 108.696 294.695 107.032V98.776C293.479 97.112 290.855 96.024 288.807 96.024C284.903 96.024 282.023 98.392 282.023 102.872C282.023 107.416 284.903 109.784 288.807 109.784Z" fill="url(#paint0_linear_168_3294)"/>
<path d="M20.712 195.768C12.072 195.768 6.056 193.016 1.768 188.984L7.592 180.408C10.664 183.48 15.4 186.04 21.288 186.04C25 186.04 27.304 184.76 27.304 182.648C27.304 177.016 3.176 181.688 3.176 165.24C3.176 158.072 9.192 151.672 20.136 151.672C26.984 151.672 32.936 153.72 37.48 157.624L31.464 165.88C27.88 162.872 23.208 161.4 18.984 161.4C15.784 161.4 14.376 162.488 14.376 164.344C14.376 169.592 38.504 165.624 38.504 181.496C38.504 190.072 32.168 195.768 20.712 195.768ZM58.1805 195.768C47.6845 195.768 41.4125 188.216 41.4125 179.512C41.4125 170.808 47.6845 163.32 58.1805 163.32C68.8045 163.32 75.0765 170.808 75.0765 179.512C75.0765 188.216 68.8045 195.768 58.1805 195.768ZM58.1805 187.064C62.5325 187.064 64.9645 183.672 64.9645 179.512C64.9645 175.416 62.5325 172.024 58.1805 172.024C53.9565 172.024 51.5245 175.416 51.5245 179.512C51.5245 183.672 53.9565 187.064 58.1805 187.064ZM95.0555 195.768C84.5595 195.768 78.2875 188.216 78.2875 179.512C78.2875 170.808 84.5595 163.32 95.0555 163.32C105.68 163.32 111.951 170.808 111.951 179.512C111.951 188.216 105.68 195.768 95.0555 195.768ZM95.0555 187.064C99.4075 187.064 101.84 183.672 101.84 179.512C101.84 175.416 99.4075 172.024 95.0555 172.024C90.8315 172.024 88.3995 175.416 88.3995 179.512C88.3995 183.672 90.8315 187.064 95.0555 187.064ZM147.931 195H138.075V177.144C138.075 173.368 136.091 172.024 133.019 172.024C130.075 172.024 128.155 173.624 127.003 175.032V195H117.147V164.088H127.003V167.864C128.859 165.688 132.507 163.32 137.755 163.32C144.731 163.32 147.931 167.416 147.931 173.112V195ZM164.492 180.088H155.724L154.188 152.312H165.964L164.492 180.088ZM160.14 195.704C156.876 195.704 154.124 192.952 154.124 189.688C154.124 186.488 156.876 183.736 160.14 183.736C163.404 183.736 166.092 186.488 166.092 189.688C166.092 192.952 163.404 195.704 160.14 195.704Z" fill="white"/>
<path d="M20.712 195.768C12.072 195.768 6.056 193.016 1.768 188.984L7.592 180.408C10.664 183.48 15.4 186.04 21.288 186.04C25 186.04 27.304 184.76 27.304 182.648C27.304 177.016 3.176 181.688 3.176 165.24C3.176 158.072 9.192 151.672 20.136 151.672C26.984 151.672 32.936 153.72 37.48 157.624L31.464 165.88C27.88 162.872 23.208 161.4 18.984 161.4C15.784 161.4 14.376 162.488 14.376 164.344C14.376 169.592 38.504 165.624 38.504 181.496C38.504 190.072 32.168 195.768 20.712 195.768ZM58.1805 195.768C47.6845 195.768 41.4125 188.216 41.4125 179.512C41.4125 170.808 47.6845 163.32 58.1805 163.32C68.8045 163.32 75.0765 170.808 75.0765 179.512C75.0765 188.216 68.8045 195.768 58.1805 195.768ZM58.1805 187.064C62.5325 187.064 64.9645 183.672 64.9645 179.512C64.9645 175.416 62.5325 172.024 58.1805 172.024C53.9565 172.024 51.5245 175.416 51.5245 179.512C51.5245 183.672 53.9565 187.064 58.1805 187.064ZM95.0555 195.768C84.5595 195.768 78.2875 188.216 78.2875 179.512C78.2875 170.808 84.5595 163.32 95.0555 163.32C105.68 163.32 111.951 170.808 111.951 179.512C111.951 188.216 105.68 195.768 95.0555 195.768ZM95.0555 187.064C99.4075 187.064 101.84 183.672 101.84 179.512C101.84 175.416 99.4075 172.024 95.0555 172.024C90.8315 172.024 88.3995 175.416 88.3995 179.512C88.3995 183.672 90.8315 187.064 95.0555 187.064ZM147.931 195H138.075V177.144C138.075 173.368 136.091 172.024 133.019 172.024C130.075 172.024 128.155 173.624 127.003 175.032V195H117.147V164.088H127.003V167.864C128.859 165.688 132.507 163.32 137.755 163.32C144.731 163.32 147.931 167.416 147.931 173.112V195ZM164.492 180.088H155.724L154.188 152.312H165.964L164.492 180.088ZM160.14 195.704C156.876 195.704 154.124 192.952 154.124 189.688C154.124 186.488 156.876 183.736 160.14 183.736C163.404 183.736 166.092 186.488 166.092 189.688C166.092 192.952 163.404 195.704 160.14 195.704Z" fill="url(#paint1_linear_168_3294)"/>
<defs>
<linearGradient id="paint0_linear_168_3294" x1="155" y1="0" x2="155" y2="195" gradientUnits="userSpaceOnUse">
<stop stop-color="#ED6D31"/>
<stop offset="1" stop-color="#EB4432"/>
</linearGradient>
<linearGradient id="paint1_linear_168_3294" x1="155" y1="0" x2="155" y2="195" gradientUnits="userSpaceOnUse">
<stop stop-color="#ED6D31"/>
<stop offset="1" stop-color="#EB4432"/>
</linearGradient>
</defs>
</svg>
